<svg width="274" height="115" viewBox="0 0 274 115" fill="none" xmlns="http://www.w3.org/2000/svg">
<path d="M259.012 92.9603C257.302 93.6014 256.661 94.5631 257.089 95.9521C257.409 97.3412 257.195 97.8754 256.127 97.448C255.165 97.1275 254.845 97.7686 255.059 99.6919C255.166 101.188 255.7 102.791 256.02 103.218C256.448 103.539 256.768 105.248 256.768 106.851C256.768 109.095 257.516 109.95 260.08 110.911C267.88 113.583 272.26 111.873 273.222 105.676C274.504 97.2343 266.491 89.9685 259.012 92.9603Z" fill="black"/>
<path d="M214.031 3.09864C214.031 3.6329 213.176 4.16715 212.215 4.16715C211.146 4.16715 206.979 5.34251 202.812 6.83843C197.257 8.76175 194.479 10.4714 191.915 13.4632C189.991 15.7071 188.389 18.1646 188.389 18.9126C188.389 19.6606 187.961 20.088 187.427 19.6606C186.038 18.9126 183.794 26.1785 184.435 29.2771C184.649 30.7731 184.436 31.6279 183.901 31.3073C182.619 30.4525 183.901 35.9019 186.359 41.1376C187.427 43.4883 188.389 45.8391 188.389 46.2665C188.389 47.8692 198.432 58.6612 199.928 58.6612C200.783 58.6612 203.988 61.4393 207.193 64.7517C214.031 72.1244 214.779 76.2916 210.185 80.5657C208.582 82.0616 206.979 83.2369 206.552 83.2369C206.125 83.2369 204.415 84.4123 202.706 85.9082C199.394 88.6863 195.013 89.4343 192.983 87.4041C192.235 86.6562 190.953 86.5493 189.778 86.9767C188.709 87.4041 186.572 87.7247 184.863 87.6178C182.833 87.4041 181.764 87.9384 181.337 89.3274C181.017 90.3959 180.162 92.3193 179.628 93.6015C178.345 96.1659 179.2 99.7988 180.91 98.7303C181.444 98.4098 182.833 98.6235 184.008 99.1577C185.504 100.013 187.32 99.9057 190.632 98.6235C194.799 97.2344 195.44 97.2344 196.509 98.7303C197.257 99.692 199.394 100.333 202.171 100.333C204.522 100.333 206.552 100.867 206.552 101.508C206.552 102.15 207.514 102.363 208.903 101.829C210.185 101.508 212.535 100.974 214.031 100.867C218.091 100.547 219.373 99.4783 219.373 96.5933C219.373 94.5631 220.121 93.8152 222.899 93.0672C229.737 91.3576 233.37 78.2149 230.164 66.4613C229.523 64.0037 228.348 61.3325 227.6 60.5845C226.852 59.8365 225.143 57.4858 223.647 55.4557C222.258 53.4255 217.343 48.0829 212.749 43.702C205.911 37.291 204.201 34.9403 203.667 31.7347C203.133 27.9949 203.24 27.6744 207.193 25.8579C209.544 24.7894 211.68 23.4003 212.108 22.8661C212.535 22.225 216.916 21.7976 221.831 21.7976C228.882 21.7976 231.126 22.225 232.622 23.614C234.865 25.9648 236.468 26.0716 236.468 23.9346C236.468 22.0113 238.178 21.7976 238.925 23.614C239.353 24.4689 239.566 24.362 239.566 23.1866C239.673 22.225 240.208 21.2633 240.849 21.0496C242.131 20.6222 239.994 11.6467 238.605 11.6467C238.284 11.6467 237.002 10.8988 235.827 9.93711C234.118 8.54804 234.118 8.33434 235.72 8.8686C239.673 10.1508 237.216 7.37268 231.981 4.80826C227.921 2.77809 224.715 2.03013 220.228 2.03013C216.809 2.03013 214.031 2.45753 214.031 3.09864Z" fill="black"/>
<path d="M128.557 96.0591C128.557 96.5933 127.381 97.1276 125.886 97.1276C124.39 97.1276 123.214 97.555 123.214 98.1961C123.214 98.7303 122.467 99.2646 121.612 99.2646C120.437 99.2646 120.009 100.333 120.223 102.684C120.33 104.607 120.009 107.065 119.582 108.026C118.941 109.415 119.795 110.27 123.108 111.98C128.77 114.972 133.365 114.865 135.395 111.873C138.493 107.492 137.211 102.256 132.082 97.3413C129.198 94.7769 128.557 94.4563 128.557 96.0591Z" fill="black"/>
<path d="M81.2251 0.961659C77.8061 1.38906 74.9213 1.92332 74.8145 2.13702C74.7077 2.35072 74.0666 3.52608 73.4256 4.70145C71.7161 7.80013 66.3739 7.58642 64.985 4.38089C63.9165 1.92332 62.3139 1.17536 62.3139 3.09868C62.3139 3.63294 59.6428 4.16719 56.4375 4.16719C52.698 4.16719 49.4927 4.8083 47.7832 5.98366C45.4327 7.47957 44.4711 7.58642 41.3727 6.41106C39.129 5.66311 33.3595 5.12885 27.2694 5.2357C21.6067 5.34255 14.5551 5.022 11.7772 4.70145C4.83236 3.73979 -0.402964 6.30421 0.0244075 10.4714C0.772308 18.3784 1.19971 18.8058 10.6019 20.6223C19.363 22.4387 30.902 22.6524 42.0137 21.3702C46.3943 20.9428 51.6296 20.7291 53.4459 20.9428C56.5444 21.4771 56.7581 21.6908 55.2623 23.0798C53.3391 25.0031 53.9801 29.384 60.177 57.0585C62.4207 66.8888 63.1686 73.8341 63.9165 89.9686C64.1302 96.2728 64.5576 101.829 64.8781 102.363C65.7329 103.752 70.8613 104.5 70.8613 103.218C70.8613 102.684 72.0366 103.004 73.5324 103.966C75.6693 105.355 76.2035 105.462 76.2035 104.287C76.2035 103.432 77.2719 101.936 78.6609 100.974C81.0114 99.1578 81.5456 95.7385 80.0498 91.1439C79.5156 89.3275 78.554 88.9001 75.135 89.0069C70.9682 89.1138 68.8313 88.1521 70.1134 86.763C70.5408 86.4425 72.9982 86.5494 75.6692 87.1905L80.3704 88.259L79.943 76.719C79.7293 70.308 78.9814 64.1106 78.3403 63.0421C77.8061 61.8668 77.2719 59.7297 77.2719 58.3407C77.2719 56.9516 76.3103 52.0365 75.135 47.335C73.8529 42.7404 72.0366 34.8334 70.8613 29.8114C68.8313 20.836 68.8313 20.7291 70.9682 18.8058C72.1434 17.7373 72.9982 17.4167 72.9982 18.1647C72.9982 19.1263 75.3487 19.2332 82.4004 18.5921C94.0462 17.5236 120.543 17.4167 129.091 18.4852C134.647 19.2332 135.822 19.0195 137.852 17.3099C140.737 14.7454 140.95 8.44123 138.172 8.44123C137.104 8.44123 135.929 9.18919 135.608 10.1508C135.288 11.0057 134.54 11.4331 133.899 11.1125C132.296 10.1508 132.617 8.44123 134.433 8.44123C135.394 8.44123 136.036 7.80013 135.929 7.05217C135.822 6.41106 136.036 4.91515 136.57 3.84664C137.745 1.06851 136.783 0.641106 131.014 1.49591C125.244 2.24387 121.612 5.66311 124.497 7.58642C125.458 8.33438 124.71 8.44123 122.253 8.01383C120.33 7.69328 113.919 7.37272 108.043 7.37272C101.205 7.37272 97.6789 6.94532 98.1063 6.30421C98.4268 5.66311 102.807 5.2357 107.829 5.2357C115.094 5.2357 117.017 4.91515 117.552 3.52608C118.086 2.13702 118.406 2.13702 119.154 3.31238C119.902 4.38089 120.33 4.38089 120.757 3.31238C120.971 2.67128 121.932 2.03017 122.787 2.03017C123.642 2.03017 124.283 1.49591 124.283 0.961659C124.283 -0.320553 90.9478 -0.320553 81.2251 0.961659Z" fill="black"/>
</svg>
