<svg width="536" height="131" viewBox="0 0 536 131" fill="none" xmlns="http://www.w3.org/2000/svg">
<g clip-path="url(#clip0_7_118)">
<path d="M453.717 11.3813C453.574 10.662 452.864 10.7434 452.036 11.5989C451.364 12.2567 451.062 12.3688 450.245 12.1168C449.728 11.9741 449.261 11.7124 449.228 11.5171C449.144 11.0288 448.789 11.0695 447.88 11.6273C447.425 11.9062 446.825 12.0995 446.515 12.052C446.174 11.9998 445.541 12.4098 445.039 12.9984C444.537 13.587 443.453 14.245 442.515 14.5766C440.639 15.2397 439.541 16.4027 440.042 17.2718C440.273 17.6242 440.254 17.7481 440.006 17.7101C439.82 17.6816 439.689 17.5031 439.718 17.3173C439.742 17.1624 439.596 17.0767 439.427 17.1459C439.222 17.2413 439.018 17.7488 438.937 18.2752C438.883 18.8374 438.559 20.119 438.238 21.1792C437.917 22.2393 437.775 23.1683 437.915 23.2849C438.363 23.6706 437.541 27.3797 436.699 28.7402C435.559 30.5939 433.805 39.1364 434.361 40.2676C434.652 40.851 434.621 41.2583 434.212 42.2732C433.553 43.8838 431.829 55.125 431.933 57.1376C431.981 58.0642 431.881 58.7145 431.712 58.7837C431.543 58.8529 431.438 59.122 431.493 59.384C431.553 59.615 431.448 59.8843 431.279 59.9534C431.141 60.0273 430.469 63.3791 429.816 67.4311C428.717 74.394 428.284 76.8 426.08 88.6965C425.977 89.2365 425.885 89.7237 425.805 90.1646L449.061 85.8661C449.945 80.6228 450.935 74.6869 452.057 67.8934C453.484 59.2058 455.666 46.0064 456.908 38.5265C460.133 19.1478 460.148 17.1851 457.403 13.5946C456.187 12.0136 455.928 11.847 454.944 11.8547C454.151 11.8598 453.789 11.7409 453.717 11.3813Z" fill="black"/>
<path d="M446.784 98.5005C447.467 94.553 448.228 90.0999 449.09 84.9884L425.834 89.287C425.295 92.2404 425.256 93.1157 425.503 93.843C425.675 94.3765 425.763 94.8338 425.639 94.8148C425.515 94.7958 425.575 95.0268 425.754 95.3078C425.959 95.6245 426.342 95.8101 426.759 95.7789C427.371 95.7143 427.371 95.7143 426.859 95.9527C425.978 96.3248 426.021 96.8702 426.869 96.715C427.517 96.6241 427.543 96.6598 427.1 97.0673C426.474 97.637 426.727 98.0561 427.458 97.6293C427.805 97.429 427.96 97.0407 427.891 96.4595C427.84 95.7545 427.881 95.6973 428.236 96.0687C428.503 96.3949 428.715 96.4591 429.036 96.2231C429.465 95.9085 430.356 96.2987 430.275 96.8251C430.246 97.0109 430.015 97.0706 429.787 96.9087C429.351 96.6517 428.02 98.0959 428.339 98.4935C428.413 98.6316 428.235 98.7627 427.937 98.8438C427.413 98.9537 426.968 100.407 427.336 100.907C427.65 101.335 427.427 102.379 426.993 102.312C426.25 102.198 426.474 102.803 427.334 103.189C427.78 103.384 428.23 103.548 428.39 103.541C428.518 103.529 428.592 103.667 428.564 103.853C428.54 104.008 428.65 104.119 428.819 104.05C428.988 103.981 429.135 104.257 429.131 104.7C429.174 105.246 429.043 105.479 428.764 105.437C428.517 105.399 428.307 105.525 428.279 105.711C428.255 105.866 428.122 105.909 427.95 105.787C427.445 105.361 426.935 105.79 427.262 106.347C427.515 106.766 427.479 106.793 427.069 106.571C426.659 106.35 426.548 106.46 426.531 107.186C426.51 107.944 426.637 108.153 427.516 108.415C428.426 108.681 428.526 108.855 428.486 109.736C428.462 110.303 428.298 110.753 428.143 110.73C427.957 110.701 427.857 110.527 427.881 110.372C427.914 110.156 427.728 110.127 427.297 110.251C426.959 110.39 426.609 110.399 426.53 110.292C426.452 110.185 426.102 110.195 425.764 110.333C425.19 110.562 425.19 110.562 425.711 110.674C426.021 110.721 426.457 110.978 426.667 111.264C426.845 111.545 427.322 111.745 427.677 111.704C428.227 111.63 428.296 111.799 428.194 112.671C428.135 113.264 428.052 114.012 428.031 114.357C427.99 114.827 428.157 114.979 428.755 115.007C430.275 115.018 430.725 115.182 430.384 115.542C430.223 115.771 430.466 115.84 431.201 115.794C431.809 115.761 432.404 115.598 432.556 115.432C432.749 115.208 432.864 115.288 432.935 115.648C433.062 116.27 434.558 117.26 435.065 117.052C435.234 116.983 435.561 117.128 435.77 117.414C436.085 117.843 437.41 118.299 438.6 118.387C438.822 118.389 438.953 118.155 438.907 117.832C438.814 117.405 438.85 117.379 439.046 117.758C439.31 118.305 440.468 118.198 440.234 117.655C440.165 117.486 440.267 117.438 440.501 117.569C440.734 117.7 441.13 117.602 441.389 117.356C441.644 117.142 442.049 116.982 442.327 117.025C443.07 117.139 448.677 113.022 450.465 111.078C452.446 108.909 452.626 108.556 452.369 107.756C452.183 107.316 452.271 106.949 452.554 106.548C452.873 106.122 452.897 105.967 452.618 105.924C452.432 105.896 452.377 105.634 452.522 105.307C452.672 104.95 452.527 104.452 452.098 103.943C451.664 103.464 451.545 103.002 451.726 102.65C452.052 101.971 451.892 101.154 451.336 100.847C451.103 100.716 450.053 100.745 449.04 100.938C446.657 101.397 446.332 101.03 446.784 98.5005Z" fill="black"/>
<path d="M445.925 13.388C445.969 12.6114 446.729 12.5905 447.728 13.3646C448.533 13.9546 448.868 14.027 449.691 13.6399C450.214 13.4127 450.667 13.0679 450.673 12.8579C450.689 12.3327 451.069 12.3223 452.11 12.7717C452.63 12.9964 453.291 13.1094 453.61 13.0132C453.961 12.9073 454.689 13.2429 455.305 13.7856C455.921 14.3283 457.16 14.8569 458.197 15.0644C460.272 15.4795 461.6 16.5361 461.202 17.5236C461.01 17.9282 461.049 18.0555 461.304 17.9785C461.495 17.9207 461.607 17.7136 461.549 17.5228C461.501 17.3638 461.642 17.252 461.83 17.2993C462.06 17.3688 462.351 17.8709 462.514 18.4116C462.654 18.9936 463.185 20.2908 463.68 21.3557C464.175 22.4207 464.463 23.3747 464.332 23.5182C463.918 23.9902 465.334 27.7612 466.422 29.0634C467.898 30.8389 471.011 39.545 470.594 40.8158C470.374 41.4719 470.466 41.895 471.048 42.8993C471.981 44.4914 475.462 56.0354 475.651 58.1641C475.738 59.144 475.94 59.8119 476.128 59.8592C476.316 59.9065 476.466 60.1734 476.447 60.4567C476.419 60.7082 476.569 60.9752 476.757 61.0224C476.914 61.0793 478.119 64.4976 479.407 68.654C481.597 75.7997 482.409 78.261 486.494 90.421C486.683 90.9724 486.851 91.4702 487.001 91.9211L461.87 90.8923C460.162 85.5199 458.239 79.4361 456.05 72.4716C459.192 64.9668 459.416 63.2032 457 55.536C450.731 35.6734 440.011 20.445 442.371 16.2639C443.417 14.4219 443.666 14.2081 444.703 14.0688C445.539 13.9554 445.903 13.7763 445.925 13.388Z" fill="black"/>
<path d="M456.728 70.9493C456.461 68.6404 459.265 67.7102 459.108 66.3966L477.988 63.3655C478.05 64.1169 478.207 65.1011 478.411 66.4048C478.607 67.5505 478.831 69.4303 478.918 70.5597C479.005 71.6892 479.282 74.0321 479.518 75.7764C479.766 77.5481 479.889 79.181 479.83 79.3697C479.66 79.868 479.878 81.8156 480.264 83.4278C480.424 84.0701 480.719 85.6257 480.919 86.8666C481.356 89.2678 484.309 97.096 485.275 98.3829C485.726 98.9917 485.72 99.0594 485.299 98.8589C485.009 98.7295 484.479 98.6757 484.181 98.777C483.66 98.9135 483.654 98.9813 484.103 99.1689C484.484 99.3549 484.551 99.5195 484.378 99.7597C484.251 99.9467 484.265 100.232 484.43 100.386C484.565 100.552 484.637 100.812 484.55 101.013C484.229 101.807 485.645 104.45 486.073 103.835C486.183 103.689 486.256 103.786 486.26 104.044C486.263 104.302 486.433 104.55 486.649 104.583C487.18 104.637 487.341 105.116 486.849 105.24C486.597 105.288 486.646 105.656 487.05 106.481C487.69 107.719 487.785 109.365 487.281 110.208C487.13 110.503 487.111 110.706 487.254 110.642C487.426 110.565 487.378 110.781 487.188 111.061C486.938 111.53 486.981 111.803 487.518 112.536C488.263 113.533 488.226 113.776 487.452 114.124C487.166 114.252 486.992 114.493 487.06 114.657C487.138 114.849 486.874 115.033 486.421 115.171C485.986 115.269 481.775 110.849 485.761 115.63C485.828 115.795 481.829 113.871 480.799 114.172C479.693 114.538 482.596 117.019 482.675 117.211C482.887 117.732 482.236 117.798 482.023 117.277C481.827 116.878 481.798 116.891 481.598 117.565C481.492 117.97 481.18 118.369 480.9 118.43C480.184 118.589 479.115 119.459 479.427 119.644C479.893 119.954 478.871 120.608 478.204 120.388C477.857 120.284 477.349 120.285 477.091 120.401C476.833 120.517 476.525 120.428 476.436 120.208C476.346 119.989 476.067 119.887 475.838 119.99C475.609 120.093 475.33 119.991 475.229 119.744C475.106 119.442 475.244 119.282 475.604 119.251C476.09 119.195 476.039 119.153 475.446 119.029C475.03 118.924 474.458 119.018 474.205 119.23C473.481 119.782 471.889 119.621 470.993 118.919C470.085 118.191 469.967 117.984 470.515 117.998C470.761 118.017 470.391 117.859 469.725 117.639C468.614 117.326 468.387 117.103 467.55 115.466C467.039 114.462 466.442 113.497 466.21 113.341C465.966 113.159 465.742 112.61 465.695 112.079C465.648 111.548 465.383 110.564 465.103 109.878C464.823 109.192 464.498 107.812 464.37 106.831C464.27 105.837 463.953 104.811 463.733 104.52C463.246 103.992 460.59 97.3934 460.674 96.9337C460.715 96.7853 460.617 96.2124 460.473 95.6928C459.883 93.3285 458.617 87.1447 458.403 85.4552C458.211 83.8207 458.133 83.6286 457.648 83.5216C457.243 83.4437 457.097 83.2499 457.185 82.8854C457.263 82.4934 457.332 82.4951 457.539 82.9213C457.921 83.6913 457.509 77.7731 456.728 70.9493Z" fill="black"/>
<path d="M522.306 33.8399C522.407 33.1135 521.71 32.9571 520.646 33.4928C519.796 33.8934 519.474 33.8999 518.785 33.3933C518.343 33.0888 517.988 32.6881 518.021 32.4926C518.103 32.004 517.754 31.9258 516.712 32.1538C516.19 32.2677 515.56 32.253 515.283 32.1064C514.979 31.9452 514.246 32.1243 513.578 32.5151C512.91 32.906 511.671 33.1714 510.676 33.1762C508.686 33.1858 507.267 33.9235 507.454 34.9089C507.557 35.3177 507.498 35.4285 507.277 35.3112C507.11 35.2232 507.045 35.0115 507.133 34.8454C507.207 34.7069 507.097 34.5783 506.915 34.588C506.69 34.6108 506.33 35.0229 506.081 35.4935C505.845 36.0066 505.118 37.1108 504.467 38.0065C503.815 38.9023 503.375 39.7329 503.47 39.8893C503.766 40.4007 501.771 43.6336 500.528 44.6416C498.842 46.0178 494.379 53.5096 494.531 54.7604C494.614 55.407 494.452 55.7816 493.732 56.6057C492.58 57.9102 487.258 67.9607 486.694 69.8955C486.435 70.7864 486.127 71.3679 485.945 71.3776C485.762 71.3874 485.575 71.6072 485.541 71.8727C485.521 72.1105 485.334 72.3304 485.151 72.3401C484.997 72.3645 483.26 75.3091 481.312 78.9215C477.985 85.1364 476.786 87.2667 470.795 97.778C470.52 98.254 470.273 98.6841 470.052 99.0741L493.429 102.657C495.987 97.9957 498.874 92.7149 502.166 86.6674C506.369 78.9313 512.767 67.1822 516.399 60.5259C525.813 43.2833 526.473 41.4348 525.059 37.1414C524.431 35.2488 524.241 35.0061 523.309 34.6901C522.558 34.4343 522.255 34.2031 522.306 33.8399Z" fill="black"/>
<path d="M534.92 73.2622C534.961 70.7303 534.992 68.8377 535.02 67.3963L511.781 68.7788C511.794 69.5984 511.731 70.6851 511.653 72.1239C511.567 73.3912 511.527 75.4536 511.553 76.6847C511.579 77.9157 511.533 80.4859 511.466 82.4046C511.391 84.3548 511.431 86.1339 511.513 86.3269C511.743 86.834 511.718 88.9682 511.48 90.7706C511.379 91.4898 511.231 93.2156 511.15 94.5862C510.941 97.2467 508.652 106.185 507.772 107.738C507.36 108.472 507.374 108.543 507.796 108.255C508.087 108.065 508.639 107.915 508.963 107.973C509.525 108.03 509.538 108.101 509.085 108.381C508.704 108.647 508.651 108.836 508.858 109.065C509.011 109.244 509.026 109.554 508.869 109.748C508.744 109.95 508.695 110.243 508.808 110.444C509.228 111.243 508.015 114.333 507.501 113.746C507.37 113.607 507.303 113.724 507.326 114.003C507.35 114.281 507.198 114.578 506.973 114.651C506.421 114.8 506.301 115.344 506.832 115.392C507.101 115.401 507.089 115.805 506.75 116.763C506.206 118.207 506.278 119.995 506.896 120.815C507.086 121.107 507.127 121.322 506.969 121.278C506.78 121.225 506.853 121.449 507.083 121.718C507.394 122.18 507.377 122.481 506.89 123.363C506.21 124.565 506.274 124.82 507.124 125.061C507.438 125.15 507.646 125.378 507.592 125.567C507.53 125.787 507.827 125.939 508.317 126.01C508.784 126.04 509.113 126.201 509.059 126.39C509.006 126.578 509.658 126.797 510.772 126.942C511.973 127.145 512.53 127.337 512.468 127.557C512.299 128.155 512.991 128.113 513.16 127.515C513.325 127.052 513.356 127.06 513.637 127.752C513.791 128.169 514.16 128.545 514.461 128.562C515.23 128.61 516.445 129.361 516.135 129.614C515.678 130.028 516.821 130.555 517.498 130.203C517.853 130.031 518.387 129.944 518.67 130.024C518.954 130.104 519.268 129.955 519.339 129.703C519.41 129.452 519.693 129.294 519.945 129.365C520.196 129.436 520.479 129.278 520.559 128.995C520.657 128.648 520.495 128.5 520.113 128.529C519.596 128.552 519.646 128.498 520.256 128.263C520.682 128.078 521.293 128.08 521.581 128.264C522.4 128.733 524.057 128.284 524.926 127.374C525.804 126.432 525.907 126.189 525.332 126.299C525.076 126.362 525.448 126.128 526.126 125.775C527.261 125.246 527.476 124.967 528.185 123.06C528.617 121.891 529.144 120.748 529.373 120.541C529.61 120.302 529.788 119.672 529.782 119.093C529.776 118.513 529.953 117.407 530.175 116.62C530.397 115.833 530.595 114.292 530.628 113.213C530.63 112.126 530.856 110.966 531.057 110.615C531.513 109.962 533.617 102.399 533.481 101.919C533.422 101.766 533.465 101.132 533.563 100.548C533.937 97.9006 534.623 91.0242 534.672 89.1684C534.703 87.3756 534.765 87.1553 535.263 86.9562C535.681 86.8022 535.815 86.5682 535.684 86.1911C535.561 85.7826 535.489 85.7963 535.315 86.291C534.995 87.186 534.81 80.7435 534.92 73.2622Z" fill="black"/>
<path d="M534.92 73.2622C534.961 70.7303 534.992 68.8377 535.02 67.3963L511.781 68.7788C511.794 69.5984 511.731 70.6851 511.653 72.1239C511.567 73.3912 511.527 75.4536 511.553 76.6847C511.579 77.9157 511.533 80.4859 511.466 82.4046C511.391 84.3548 511.431 86.1339 511.513 86.3269C511.743 86.834 511.718 88.9682 511.48 90.7706C511.379 91.4898 511.231 93.2156 511.15 94.5862C510.941 97.2467 508.652 106.185 507.772 107.738C507.36 108.472 507.374 108.543 507.796 108.255C508.087 108.065 508.639 107.915 508.963 107.973C509.525 108.03 509.538 108.101 509.085 108.381C508.704 108.647 508.651 108.836 508.858 109.065C509.011 109.244 509.026 109.554 508.869 109.748C508.744 109.95 508.695 110.243 508.808 110.444C509.228 111.243 508.015 114.333 507.501 113.746C507.37 113.607 507.303 113.724 507.326 114.003C507.35 114.281 507.198 114.578 506.973 114.651C506.421 114.8 506.301 115.344 506.832 115.392C507.101 115.401 507.089 115.805 506.75 116.763C506.206 118.207 506.278 119.995 506.896 120.815C507.086 121.107 507.127 121.322 506.969 121.278C506.78 121.225 506.853 121.449 507.083 121.718C507.394 122.18 507.377 122.481 506.89 123.363C506.21 124.565 506.274 124.82 507.124 125.061C507.438 125.15 507.646 125.378 507.592 125.567C507.53 125.787 507.827 125.939 508.317 126.01C508.784 126.04 509.113 126.201 509.059 126.39C509.006 126.578 509.658 126.797 510.772 126.942C511.973 127.145 512.53 127.337 512.468 127.557C512.299 128.155 512.991 128.113 513.16 127.515C513.325 127.052 513.356 127.06 513.637 127.752C513.791 128.169 514.16 128.545 514.461 128.562C515.23 128.61 516.445 129.361 516.135 129.614C515.678 130.028 516.821 130.555 517.498 130.203C517.853 130.031 518.387 129.944 518.67 130.024C518.954 130.104 519.268 129.955 519.339 129.703C519.41 129.452 519.693 129.294 519.945 129.365C520.196 129.436 520.479 129.278 520.559 128.995C520.657 128.648 520.495 128.5 520.113 128.529C519.596 128.552 519.646 128.498 520.256 128.263C520.682 128.078 521.293 128.08 521.581 128.264C522.4 128.733 524.057 128.284 524.926 127.374C525.804 126.432 525.907 126.189 525.332 126.299C525.076 126.362 525.448 126.128 526.126 125.775C527.261 125.246 527.476 124.967 528.185 123.06C528.617 121.891 529.144 120.748 529.373 120.541C529.61 120.302 529.788 119.672 529.782 119.093C529.776 118.513 529.953 117.407 530.175 116.62C530.397 115.833 530.595 114.292 530.628 113.213C530.63 112.126 530.856 110.966 531.057 110.615C531.513 109.962 533.617 102.399 533.481 101.919C533.422 101.766 533.465 101.132 533.563 100.548C533.937 97.9006 534.623 91.0242 534.672 89.1684C534.703 87.3756 534.765 87.1553 535.263 86.9562C535.681 86.8022 535.815 86.5682 535.684 86.1911C535.561 85.7826 535.489 85.7963 535.315 86.291C534.995 87.186 534.81 80.7435 534.92 73.2622Z" fill="black"/>
<path d="M520.138 18.0101C520.399 17.3246 521.085 17.5227 521.76 18.5039C522.313 19.264 522.593 19.4248 523.44 19.3119C523.974 19.2571 524.478 19.0765 524.543 18.8894C524.706 18.4218 525.05 18.5209 525.854 19.222C526.256 19.5726 526.816 19.8628 527.129 19.8674C527.474 19.8724 528.03 20.3819 528.428 21.0457C528.825 21.7096 529.784 22.5383 530.654 23.0211C532.395 23.9866 533.284 25.3156 532.646 26.0896C532.359 26.3987 532.357 26.524 532.608 26.5277C532.796 26.5304 532.955 26.3761 532.958 26.1882C532.96 26.0315 533.118 25.9712 533.273 26.0674C533.459 26.1955 533.576 26.7299 533.569 27.2624C533.529 27.8258 533.635 29.1434 533.775 30.2421C533.916 31.3408 533.902 32.2806 533.744 32.3723C533.238 32.6782 533.433 36.4723 534.038 37.9538C534.855 39.9711 535.165 48.6862 534.43 49.7094C534.046 50.2364 534.009 50.6432 534.244 51.7119C534.626 53.4095 534.459 64.7809 534.023 66.7484C533.822 67.6541 533.812 68.312 533.967 68.4083C534.122 68.5045 534.181 68.7874 534.083 69.0366C533.986 69.2545 534.045 69.5374 534.2 69.6336C534.324 69.7295 534.43 73.1463 534.401 77.2505C534.329 84.2993 534.356 86.7436 534.554 98.841C534.567 99.3907 534.576 99.8863 534.582 100.334L512.363 92.2342C512.361 86.9169 512.37 80.8989 512.392 74.0135C512.427 65.2095 512.467 51.8309 512.484 44.2487C512.522 24.6035 512.833 22.6655 516.136 19.5807C517.597 18.2235 517.881 18.1023 518.85 18.2732C519.631 18.41 520.008 18.3529 520.138 18.0101Z" fill="black"/>
<path d="M512.51 105.071C512.492 101.065 512.481 96.5474 512.479 91.3639L534.699 99.4641C534.74 102.466 534.633 103.336 534.269 104.012C534.011 104.51 533.848 104.946 533.973 104.948C534.099 104.95 534.001 105.167 533.778 105.415C533.524 105.693 533.115 105.812 532.709 105.712C532.116 105.547 532.116 105.547 532.581 105.867C533.388 106.38 533.255 106.911 532.445 106.617C531.821 106.42 531.789 106.451 532.158 106.926C532.681 107.592 532.363 107.963 531.713 107.421C531.403 107.166 531.315 106.757 531.48 106.196C531.647 105.509 531.616 105.446 531.204 105.753C530.887 106.03 530.667 106.058 530.39 105.772C530.019 105.391 529.076 105.628 529.068 106.16C529.065 106.348 529.283 106.445 529.536 106.324C530.008 106.143 531.081 107.788 530.7 108.127C530.604 108.251 530.758 108.41 531.038 108.539C531.537 108.734 531.734 110.241 531.289 110.673C530.907 111.044 530.954 112.11 531.393 112.116C532.145 112.127 531.823 112.687 530.911 112.924C530.439 113.042 529.968 113.129 529.812 113.096C529.687 113.063 529.591 113.187 529.589 113.374C529.586 113.531 529.46 113.623 529.304 113.527C529.149 113.431 528.958 113.679 528.888 114.116C528.755 114.647 528.846 114.899 529.128 114.903C529.378 114.907 529.564 115.066 529.561 115.254C529.559 115.411 529.683 115.475 529.872 115.384C530.441 115.048 530.873 115.555 530.458 116.051C530.139 116.422 530.17 116.454 530.611 116.303C531.052 116.153 531.144 116.28 531.039 116.999C530.934 117.749 530.775 117.935 529.865 118.047C528.923 118.159 528.796 118.313 528.689 119.189C528.618 119.752 528.705 120.223 528.862 120.226C529.049 120.228 529.177 120.074 529.179 119.917C529.183 119.698 529.371 119.701 529.775 119.894C530.085 120.087 530.429 120.155 530.524 120.062C530.62 119.97 530.963 120.037 531.274 120.23C531.802 120.551 531.802 120.551 531.269 120.574C530.956 120.57 530.483 120.751 530.229 120.998C530.006 121.245 529.503 121.363 529.16 121.264C528.629 121.1 528.533 121.255 528.489 122.132C528.449 122.726 528.406 123.478 528.37 123.822C528.332 124.291 528.142 124.414 527.548 124.342C526.048 124.101 525.576 124.188 525.852 124.599C525.974 124.852 525.723 124.88 525.005 124.712C524.411 124.578 523.851 124.319 523.729 124.13C523.576 123.877 523.45 123.938 523.319 124.28C523.091 124.872 521.451 125.6 520.986 125.311C520.83 125.215 520.484 125.304 520.23 125.551C519.849 125.921 518.467 126.152 517.278 126.04C517.059 126.006 516.969 125.754 517.067 125.442C517.23 125.037 517.199 125.005 516.943 125.346C516.592 125.842 515.468 125.544 515.789 125.047C515.885 124.892 515.792 124.828 515.54 124.918C515.288 125.008 514.914 124.846 514.699 124.561C514.484 124.307 514.111 124.082 513.829 124.078C513.077 124.067 508.232 119.077 506.792 116.862C505.199 114.395 505.079 114.017 505.466 113.271C505.722 112.868 505.697 112.491 505.484 112.049C505.24 111.576 505.242 111.419 505.524 111.423C505.712 111.426 505.81 111.177 505.721 110.831C505.632 110.454 505.859 109.987 506.366 109.556C506.873 109.156 507.068 108.72 506.948 108.342C506.739 107.619 507.033 106.84 507.631 106.629C507.883 106.539 508.914 106.742 509.88 107.101C512.155 107.949 512.535 107.641 512.51 105.071Z" fill="black"/>
<path d="M525.517 21.1352C525.603 20.362 524.857 20.2152 523.743 20.8127C522.852 21.2609 522.509 21.2766 521.762 20.7583C521.283 20.4473 520.894 20.0321 520.923 19.8239C520.994 19.3035 520.622 19.2301 519.521 19.5005C518.97 19.6357 518.3 19.6374 518.001 19.4895C517.673 19.3268 516.899 19.5369 516.201 19.9698C515.504 20.4026 514.195 20.7182 513.137 20.7506C511.022 20.8155 509.537 21.6368 509.766 22.6768C509.887 23.1076 509.828 23.2266 509.59 23.1083C509.41 23.0196 509.335 22.7968 509.423 22.6182C509.497 22.4694 509.377 22.3359 509.183 22.3512C508.945 22.3816 508.575 22.8285 508.325 23.3345C508.089 23.8851 507.351 25.0762 506.686 26.0442C506.02 27.0121 505.578 27.9051 505.683 28.0684C506.014 28.6027 503.992 32.0862 502.701 33.1896C500.952 34.6954 496.436 42.7638 496.637 44.0862C496.745 44.7698 496.583 45.1715 495.843 46.0653C494.659 47.4805 489.309 58.2862 488.769 60.3538C488.521 61.3058 488.211 61.9309 488.017 61.9463C487.824 61.9617 487.632 62.2 487.603 62.4825C487.59 62.7352 487.397 62.9736 487.204 62.9889C487.04 63.0191 485.284 66.1898 483.324 70.0746C479.978 76.7575 478.768 79.0498 472.721 90.3627C472.443 90.8751 472.194 91.338 471.971 91.7577L496.925 94.9161C499.501 89.9018 502.408 84.2218 505.722 77.7174C503.87 69.7951 503.942 68.0187 507.598 60.8593C517.078 42.3132 530.177 29.076 528.544 24.5612C527.819 22.5712 527.609 22.319 526.609 22.0094C525.804 21.7587 525.475 21.5218 525.517 21.1352Z" fill="black"/>
<path d="M507.354 79.7271C508.359 77.452 505.787 75.6128 506.364 74.3199L488.026 65.2406C487.725 65.9889 487.253 66.9452 486.631 68.2132C486.068 69.3222 485.244 71.1728 484.797 72.2995C484.35 73.4263 483.325 75.7333 482.53 77.4414C481.716 79.1739 481.073 80.8039 481.073 81.0154C481.089 81.5786 480.25 83.5004 479.345 85.026C478.978 85.6318 478.183 87.1284 477.585 88.3332C476.379 90.6493 470.88 97.715 469.485 98.7246C468.831 99.2037 468.816 99.275 469.309 99.2034C469.647 99.163 470.206 99.2761 470.479 99.474C470.968 99.7785 470.953 99.8498 470.434 99.8992C469.985 99.9685 469.865 100.116 469.966 100.416C470.037 100.647 469.931 100.935 469.715 101.04C469.523 101.167 469.367 101.409 469.393 101.643C469.469 102.556 467.185 104.808 466.942 104.045C466.876 103.86 466.77 103.936 466.685 104.199C466.6 104.461 466.348 104.662 466.116 104.626C465.557 104.513 465.24 104.952 465.704 105.235C465.946 105.363 465.78 105.724 465.105 106.439C464.059 107.502 463.441 109.154 463.689 110.176C463.75 110.525 463.705 110.739 463.579 110.628C463.427 110.494 463.407 110.73 463.514 111.078C463.62 111.636 463.489 111.901 462.709 112.481C461.632 113.263 461.592 113.523 462.273 114.124C462.525 114.346 462.626 114.647 462.505 114.794C462.364 114.965 462.576 115.237 462.995 115.521C463.408 115.759 463.646 116.053 463.525 116.2C463.404 116.347 463.914 116.838 464.872 117.472C465.885 118.197 466.319 118.622 466.178 118.793C465.796 119.259 466.441 119.532 466.824 119.066C467.151 118.721 467.176 118.743 467.167 119.496C467.147 119.943 467.339 120.451 467.606 120.602C468.287 120.991 469.105 122.219 468.727 122.308C468.153 122.478 468.99 123.47 469.741 123.456C470.129 123.46 470.648 123.622 470.875 123.822C471.102 124.023 471.445 124.029 471.606 123.833C471.767 123.637 472.084 123.621 472.286 123.799C472.488 123.977 472.805 123.961 472.986 123.741C473.208 123.471 473.117 123.264 472.759 123.117C472.28 122.906 472.345 122.88 472.99 122.941C473.449 122.966 474.004 123.243 474.195 123.539C474.761 124.333 476.439 124.673 477.577 124.24C478.736 123.783 478.922 123.609 478.357 123.449C478.1 123.391 478.529 123.346 479.279 123.332C480.514 123.365 480.816 123.209 482.19 121.801C483.03 120.936 483.946 120.139 484.234 120.054C484.541 119.944 484.943 119.454 485.159 118.927C485.375 118.399 485.959 117.477 486.462 116.864C486.965 116.252 487.734 114.944 488.177 113.982C488.594 112.998 489.243 112.049 489.56 111.822C490.225 111.436 495.03 105.533 495.089 105.037C495.094 104.872 495.376 104.317 495.688 103.832C497.04 101.602 500.293 95.6827 501.047 94.0237C501.761 92.4136 501.902 92.2421 502.431 92.2862C502.869 92.3348 503.081 92.1833 503.105 91.7826C503.15 91.3574 503.08 91.3374 502.733 91.7072C502.098 92.3733 504.394 86.4545 507.354 79.7271Z" fill="black"/>
<path d="M33.7797 2.11486C30.4002 2.78648 27.5612 3.52634 27.47 3.74716C27.3788 3.96798 26.8237 5.1863 26.2686 6.40463C24.7859 9.61798 19.4422 9.78814 17.8268 6.69053C16.5848 4.31595 14.9326 3.68492 15.0706 5.60328C15.1089 6.13616 12.4831 6.86069 9.28604 7.09068C5.55617 7.35899 7.97034 3.97151 6.34959 5.2665L0 7.59105L5.66876 16.7078L6.91376 13.1092L7.59181 15.5669L9.69429 16.9195L10.4441 20.3746L10.7311 24.3643C10.7311 24.3643 10.9143 26.9688 9.52201 28.4616C7.74179 30.518 8.64433 32.4189 16.8109 59.5773C19.7542 69.2213 20.9985 76.095 22.9022 92.1343C23.5676 98.4069 24.3926 103.918 24.7506 104.428C25.7029 105.752 30.8717 106.13 30.7797 104.851C30.7414 104.318 31.9367 104.554 33.4976 105.406C35.7286 106.638 36.2691 106.706 36.1848 105.534C36.1235 104.681 37.0818 103.112 38.3982 102.054C40.6123 100.073 40.8998 96.6245 39.0782 92.149C38.415 90.3756 37.4253 90.0183 34.0228 90.3702C29.8743 90.7757 27.6739 89.9698 28.8531 88.4924C29.2564 88.142 31.7151 88.0723 34.4253 88.5201L39.1909 89.2485L37.9366 77.769C37.2635 71.3898 36.0728 65.2621 35.3568 64.2423C34.7396 63.1083 32.466 61.2845 32.3663 59.899C32.2667 58.5135 32.5423 53.4107 31.0327 48.8057C29.4242 44.3149 27.0453 36.5586 25.5127 31.6339C22.8439 22.8272 22.8362 22.7206 24.8296 20.6489C25.9252 19.4989 26.7547 19.1178 26.8083 19.8638C26.8773 20.823 29.2295 20.7609 36.217 19.6155C58.7115 15.3985 57.3657 59.4069 30.1548 58.938C2.94395 58.469 58.3695 80.3291 62.9119 45.9144C62.9119 45.9144 64.6127 27.7456 61.5486 26.9634C58.6246 21.1583 53.6491 7.74203 53.6491 7.74203L57.0001 12.5139L56.4655 12.0511L55.3246 10.128L55.2529 9.13054L56.2144 8.56007L55.1452 7.6344L54.1478 7.70616C54.1478 7.70616 55.628 6.02711 53.6132 7.24332C46.7929 7.73395 50.6205 6.9025 51.0007 6.23238C51.2744 5.56993 49.4395 5.27342 54.4482 4.91311C54.4482 4.91311 51.4831 5.98342 51.9163 4.55961C52.3495 3.1358 48.5924 3.62032 49.4227 4.73899C50.2454 5.75108 50.91 3.49613 51.2596 2.39971C51.4268 1.74492 50.381 2.099 51.2336 2.03767C52.0861 1.97634 48.1622 1.153 48.1239 0.620121C48.0319 -0.658787 43.3854 0.138327 33.7797 2.11486Z" fill="black"/>
<path d="M260.321 13.2425C256.942 13.9151 254.103 14.6559 254.012 14.8767C253.921 15.0975 253.366 16.316 252.811 17.5345C251.329 20.7483 245.986 20.9201 244.37 17.8229C243.127 15.4487 241.474 14.8182 241.613 16.7365C241.652 17.2694 239.026 17.9947 235.829 18.2256C232.099 18.4951 234.512 15.1069 232.892 16.4023L226.543 18.7288L232.215 27.8439L233.458 24.2449L234.137 26.7023L236.24 28.0544L236.991 31.5092L237.279 35.4988C237.279 35.4988 237.463 38.1033 236.071 39.5965C234.292 41.6534 235.195 43.5541 243.369 70.71C246.316 80.3531 247.562 87.2265 249.47 103.265C250.138 109.537 250.964 115.049 251.323 115.559C252.275 116.882 257.444 117.259 257.352 115.98C257.313 115.448 258.509 115.683 260.07 116.534C262.301 117.765 262.842 117.834 262.757 116.661C262.695 115.809 263.653 114.24 264.969 113.18C267.183 111.199 267.469 107.749 265.646 103.275C264.983 101.502 263.993 101.145 260.59 101.498C256.442 101.905 264.153 101.884 265.332 100.406C265.735 100.055 261.747 98.9985 264.457 99.4455L263.539 86.74L268.401 84.3007C277.651 84.7038 278.402 118.992 293.613 114.432C298.851 96.732 290.092 65.6895 271.758 68.6593C271.658 67.2739 259.099 64.5387 257.588 59.9341C255.978 55.4439 253.597 47.6883 252.063 42.764C249.391 33.9581 249.384 33.8515 251.376 31.7793C252.472 30.6288 253.301 30.2475 253.355 30.9936C253.424 31.9527 255.776 31.8899 262.764 30.7424C285.257 26.5187 291.934 60.1694 263.006 66.7264C234.078 73.2833 289.328 82.8718 293.86 48.4559C293.86 48.4559 293.632 31.428 289.571 30.7188C286.645 24.9146 283.617 24.632 283.617 24.632L283.545 23.6346L283.01 23.1719L281.868 21.2492L281.796 20.2518L282.758 19.681L281.688 18.7557L280.691 18.8277C280.691 18.8277 282.171 17.1482 280.156 18.365C273.336 18.8577 277.163 18.0251 277.543 17.3549C277.817 16.6924 275.982 16.3964 280.99 16.0346C280.99 16.0346 278.026 17.1058 278.458 15.6818C278.891 14.2579 275.134 14.7435 275.965 15.862C276.788 16.8738 277.452 14.6187 277.801 13.5221C277.968 12.8673 276.922 13.2217 277.775 13.1601C278.627 13.0985 274.703 12.2764 274.665 11.7435C274.572 10.4646 269.926 11.2631 260.321 13.2425Z" fill="black"/>
<path d="M102.648 4.15671C102.007 3.84763 97.7447 4.21068 97.4529 4.63573C97.4173 4.69569 95.741 5.07063 93.7679 5.48248C91.7454 5.84489 89.8774 6.41028 89.6145 6.72066C89.3092 7.03632 88.707 7.38887 88.2472 7.50155C87.8366 7.66366 86.666 8.64225 85.7144 9.64918C88.2382 16.8655 81.0662 13.837 80.5368 13.7362C80.3179 13.7078 80.211 13.8877 80.2382 14.1065C80.2722 14.38 79.5835 15.0766 78.7183 15.7395C77.8531 16.4024 77.2493 17.0884 77.4105 17.3461C77.5717 17.6038 77.129 18.5475 76.4319 19.5228C75.7279 20.4434 75.0495 21.9162 74.9038 22.823C74.7292 23.8444 74.1033 24.6998 73.0328 25.4438C72.1608 26.052 71.4721 26.7486 71.4993 26.9673C71.5265 27.1861 70.9193 28.539 70.1917 29.9625C68.9078 32.4548 68.1124 34.7197 66.9324 39.0875C66.6373 40.1795 66.31 40.6645 66.1351 40.2974C66.0027 39.9251 70.9993 37.1597 71.1928 38.0243C71.4221 38.8289 66.465 43.6444 66.2464 45.0046C65.6177 49.3039 59.2975 56.3502 65.0864 56.8125C65.2259 67.2925 69.5326 67.2874 69.4954 78.4273C69.8774 79.7684 71.9774 80.3763 72.3409 82.6083C73.1427 87.674 73.7313 88.5968 74.8393 88.8478C75.8692 89.1642 75.9839 90.7805 75.1476 91.3288C74.6301 91.6708 75.6581 93.0109 76.3658 94.2004C77.262 95.8664 75.6992 99.9266 76.1538 99.4258C76.6508 98.9197 77.9693 99.4779 77.7471 100.116C77.6539 100.406 77.3705 100.552 77.1381 100.414C76.8988 100.222 76.7427 100.352 76.7699 100.571C76.8854 101.501 80.4694 103.999 81.1565 103.636C81.3194 103.56 81.8199 103.776 82.2204 104.226C82.6566 104.616 83.5949 104.888 84.316 104.799C85.0795 104.704 86.6541 104.897 87.8537 105.192C89.0534 105.487 91.2642 105.601 92.7488 105.417C95.0817 105.127 95.6535 105.223 96.4189 106.183C97.2336 107.192 97.6289 107.254 101.433 106.671C105.661 106.034 105.678 102.706 113.379 98.4724C114.185 100.457 122.342 88.1811 122.996 81.1627C122.996 81.1627 128.617 73.0985 126.162 69.01C123.707 64.9215 127.28 56.0017 126.915 54.544C126.638 53.3565 128.609 49.1219 127.587 45.7499C126.523 42.383 128.035 34.7154 127.667 33.4837C127.249 32.2026 126.345 36.1473 128.396 35.8924L127.104 41.8583L130.167 34.5091C130.742 33.9378 129.504 33.1998 128.51 31.435C127.676 29.9278 128.333 29.4085 129.056 28.9854C129.531 28.6487 129.242 25.6331 128.363 23.4097C126.29 18.1686 132.71 21.4709 132.125 21.266C129.832 21.5509 131.555 20.8369 131.655 20.6023C131.748 20.313 128.702 19.8584 128.702 19.8584L126.726 17.0801C126.617 16.205 125.074 12.7002 123.389 11.9654C122.479 11.5786 121.296 10.7258 120.784 10.0675C120.229 9.41442 118.603 8.11683 117.152 7.18631C115.652 6.20636 114.541 5.23367 114.634 4.94437C114.914 4.07648 113.841 3.76543 110.972 3.89983C109.213 3.95186 108.045 4.26354 107.711 4.69386C107.377 5.12418 106.839 5.30209 106.388 5.13602C105.93 4.91525 105.09 4.74193 104.525 4.70106C103.917 4.66547 103.71 7.50005 102.648 4.15671ZM107.397 38.5576C107.558 38.8153 108.108 39.0802 108.687 39.2305C109.717 39.5468 110.163 40.7132 109.474 41.4098C109.283 41.6002 109.159 42.3376 109.241 42.994C109.368 44.3667 108.695 46.2277 107.974 46.3173C107.719 46.3489 107.562 46.8128 107.623 47.3051C107.684 47.7974 107.531 48.6495 107.246 49.1292C106.626 50.3727 107.64 56.4571 108.102 56.0109C109.359 54.6883 107.816 79.8952 105.528 73.9493C105.045 74.5648 99.7687 73.828 99.5126 74.1931L95.1115 71.2131C94.0258 72.1812 93.053 69.394 91.811 69.1041C90.4773 68.7699 90.8982 65.6906 90.8982 65.6906L90.0937 63.2713L86.9345 58.1216C85.6397 57.0606 89.3451 53.0201 89.7296 49.5288C90.529 42.098 96.194 35.402 99.217 32.6936C100.459 31.5951 106.773 37.691 107.397 38.5576Z" fill="black"/>
<path d="M332.913 16.6268C332.272 16.3177 328.009 16.6808 327.718 17.1058C327.682 17.1658 326.006 17.5408 324.033 17.9526C322.01 18.315 320.142 18.8804 319.879 19.1908C319.574 19.5064 318.972 19.859 318.512 19.9717C318.101 20.1338 316.931 21.1124 315.979 22.1193C318.503 29.3356 311.331 26.3071 310.802 26.2063C310.583 26.178 310.476 26.3579 310.503 26.5766C310.537 26.8501 309.848 27.5467 308.983 28.2096C308.118 28.8726 307.514 29.5586 307.675 29.8162C307.837 30.0739 307.394 31.0176 306.697 31.9929C305.993 32.9135 305.314 34.3863 305.169 35.2931C304.994 36.3145 304.368 37.1699 303.298 37.9139C302.426 38.5221 301.737 39.2187 301.764 39.4375C301.791 39.6562 301.184 41.0092 300.457 42.4326C299.173 44.9249 298.377 47.1898 297.197 51.5576C296.902 52.6496 296.575 53.1346 296.4 52.7675C296.268 52.3952 301.264 49.6298 301.458 50.4944C301.687 51.299 296.73 56.1146 296.511 57.4747C295.882 61.774 289.562 68.8204 295.351 69.2826C295.491 79.7626 299.797 79.7575 299.76 90.8974C300.142 92.2385 302.242 92.8464 302.606 95.0784C303.408 100.144 303.996 101.067 305.104 101.318C306.134 101.634 306.249 103.251 305.412 103.799C304.895 104.141 305.923 105.481 306.631 106.671C307.527 108.336 305.964 112.397 306.419 111.896C306.916 111.39 308.234 111.948 308.012 112.587C307.919 112.876 307.635 113.022 307.403 112.884C307.164 112.692 307.008 112.823 307.035 113.041C307.15 113.971 310.734 116.469 311.421 116.106C311.584 116.031 312.085 116.246 312.485 116.696C312.921 117.086 313.86 117.358 314.581 117.269C315.344 117.174 316.919 117.367 318.119 117.662C319.318 117.958 321.529 118.072 323.014 117.887C325.346 117.597 325.918 117.693 326.684 118.653C327.498 119.662 327.894 119.724 331.698 119.141C335.926 118.504 335.943 115.176 343.643 110.943C344.45 112.927 352.606 100.651 353.26 93.6328C353.26 93.6328 358.882 85.5686 356.427 81.4801C353.972 77.3916 357.545 68.4719 357.18 67.0141C356.903 65.8266 358.874 61.5921 357.852 58.22C356.787 54.8532 358.3 47.1855 357.932 45.9538C357.514 44.6727 356.61 48.6174 358.661 48.3625L357.368 54.3284L360.432 46.9792C361.007 46.4079 359.769 45.6699 358.775 43.9051C357.941 42.398 358.598 41.8786 359.32 41.4555C359.796 41.1188 359.507 38.1032 358.628 35.8798C356.555 30.6388 362.975 33.941 362.39 33.7361C360.097 34.021 361.82 33.3071 361.92 33.0725C362.013 32.7832 358.967 32.3286 358.967 32.3286L356.991 29.5503C356.882 28.6751 355.338 25.1704 353.653 24.4356C352.744 24.0487 351.561 23.196 351.049 22.5376C350.494 21.8845 348.868 20.587 347.417 19.6564C345.917 18.6765 344.806 17.7038 344.899 17.4145C345.179 16.5466 344.106 16.2355 341.237 16.3699C339.477 16.422 338.31 16.7337 337.976 17.164C337.642 17.5943 337.104 17.7722 336.653 17.6061C336.195 17.3854 335.355 17.2121 334.79 17.1712C334.182 17.1356 333.975 19.9702 332.913 16.6268ZM337.662 51.0277C337.823 51.2854 338.373 51.5503 338.952 51.7006C339.982 52.0169 340.428 53.1833 339.739 53.8799C339.548 54.0703 339.424 54.8077 339.505 55.4641C339.633 56.8368 338.96 58.6978 338.239 58.7874C337.984 58.819 337.826 59.283 337.888 59.7752C337.949 60.2675 337.796 61.1196 337.511 61.5993C336.891 62.8428 337.905 68.9272 338.367 68.481C339.624 67.1585 338.081 92.3653 335.793 86.4194C335.31 87.0349 330.034 86.2981 329.777 86.6632L325.376 83.6832C324.291 84.6513 323.318 81.8641 322.076 81.5742C320.742 81.24 321.163 78.1607 321.163 78.1607L320.359 75.7414L317.199 70.5917C315.905 69.5307 319.61 65.4902 319.994 61.9989C320.794 54.5681 326.459 47.8721 329.482 45.1637C330.724 44.0652 337.037 50.1611 337.662 51.0277Z" fill="black"/>
<path d="M390.765 17.6274C390.081 17.4299 385.94 18.5001 385.723 18.9679C385.698 19.033 384.108 19.6828 382.231 20.4186C380.298 21.1139 378.551 21.9835 378.343 22.3334C378.095 22.6957 377.56 23.1439 377.126 23.3318C376.748 23.5603 375.758 24.7207 374.988 25.8725C378.682 32.5656 371.105 30.7782 370.566 30.7673C370.345 30.7759 370.27 30.9712 370.333 31.1823C370.413 31.4463 369.85 32.2481 369.108 33.0463C368.365 33.8445 367.885 34.6218 368.087 34.8489C368.289 35.076 368.01 36.0804 367.486 37.1585C366.945 38.1838 366.523 39.7493 366.53 40.6677C366.529 41.7039 366.055 42.6518 365.124 43.5642C364.366 44.3097 363.803 45.1115 363.866 45.3227C363.93 45.5338 363.557 46.9692 363.078 48.4942C362.228 51.166 361.823 53.532 361.389 58.0356C361.281 59.1615 361.039 59.6944 360.805 59.3617C360.613 59.0167 365.077 55.4552 365.412 56.2753C365.773 57.0303 361.69 62.6065 361.702 63.9841C361.8 68.328 356.747 76.3314 362.531 75.8198C364.42 86.1291 368.665 85.4044 370.49 96.3939C371.091 97.6522 373.263 97.9007 373.995 100.041C375.632 104.901 376.366 105.712 377.5 105.775C378.569 105.915 378.952 107.489 378.219 108.169C377.766 108.593 379.003 109.743 379.9 110.797C381.062 112.29 380.2 116.554 380.564 115.984C380.97 115.402 382.363 115.732 382.251 116.399C382.207 116.7 381.952 116.891 381.7 116.795C381.432 116.645 381.3 116.8 381.363 117.011C381.632 117.908 385.583 119.772 386.2 119.3C386.348 119.198 386.878 119.326 387.348 119.703C387.843 120.015 388.814 120.127 389.51 119.918C390.246 119.697 391.831 119.624 393.063 119.714C394.295 119.805 396.494 119.548 397.927 119.118C400.179 118.442 400.758 118.441 401.674 119.26C402.645 120.119 403.046 120.114 406.698 118.903C410.761 117.569 410.222 114.285 417.106 108.824C418.233 110.645 424.223 97.1793 423.695 90.1503C423.695 90.1503 427.89 81.2601 424.786 77.6393C421.682 74.0186 423.715 64.6271 423.111 63.2509C422.64 62.1263 423.876 57.622 422.304 54.4681C420.692 51.3265 420.902 43.5139 420.333 42.3611C419.707 41.1678 419.475 45.2081 421.455 44.614L421.177 50.7121L422.97 42.9543C423.441 42.2949 422.097 41.7741 420.822 40.2003C419.748 38.8537 420.309 38.2319 420.951 37.694C421.363 37.2826 420.574 34.3577 419.336 32.3124C416.416 27.4915 423.298 29.6744 422.687 29.5702C420.474 30.2342 422.053 29.2425 422.113 28.9944C422.156 28.6936 419.077 28.7544 419.077 28.7544L416.664 26.3455C416.411 25.5008 414.303 22.3033 412.519 21.8604C411.558 21.631 410.249 20.9879 409.634 20.4244C408.977 19.8733 407.158 18.8656 405.572 18.1906C403.929 17.4751 402.671 16.7019 402.714 16.4011C402.845 15.4986 401.736 15.3712 398.929 15.9831C397.203 16.3285 396.105 16.8308 395.847 17.3109C395.59 17.791 395.089 18.0563 394.616 17.968C394.128 17.8269 393.271 17.7964 392.707 17.8505C392.102 17.9169 392.371 20.7462 390.765 17.6274ZM401.196 50.751C401.398 50.9781 401.985 51.1474 402.58 51.1989C403.649 51.3386 404.284 52.414 403.721 53.2159C403.564 53.4357 403.565 54.1834 403.755 54.8169C404.11 56.149 403.758 58.0963 403.062 58.3052C402.816 58.3789 402.738 58.8626 402.881 59.3378C403.023 59.8129 403.015 60.6785 402.814 61.1991C402.41 62.5289 404.427 68.3581 404.808 67.8411C405.826 66.3271 408.517 91.4373 405.268 85.9573C404.895 86.6449 399.569 86.8002 399.378 87.203L394.541 85.0004C393.632 86.1363 392.207 83.5509 390.934 83.4725C389.563 83.366 389.464 80.2596 389.464 80.2596L388.266 78.0088L384.291 73.4594C382.837 72.6297 385.815 68.0268 385.611 64.5203C385.157 57.0604 389.623 49.512 392.151 46.3364C393.192 45.0458 400.436 50.0009 401.196 50.751Z" fill="black"/>
<path d="M152.379 6.18006C152.218 5.46577 151.505 5.5609 150.69 6.43027C150.028 7.09934 149.726 7.21709 148.897 6.98194C148.373 6.84994 147.897 6.59818 147.859 6.40412C147.763 5.91898 147.407 5.96655 146.503 6.54071C146.051 6.82779 145.451 7.03233 145.138 6.99111C144.794 6.94578 144.165 7.3671 143.673 7.96387C143.18 8.56064 142.104 9.23807 141.166 9.5872C139.291 10.2855 138.211 11.4666 138.736 12.3233C138.977 12.6701 138.96 12.794 138.71 12.761C138.522 12.7363 138.386 12.5608 138.41 12.375C138.431 12.2201 138.282 12.1376 138.114 12.2099C137.909 12.309 137.715 12.819 137.646 13.3455C137.604 13.9071 137.307 15.1913 137.008 16.2546C136.709 17.3179 136.586 18.247 136.731 18.3605C137.191 18.7361 136.447 22.4504 135.629 23.8235C134.523 25.6943 132.951 34.246 133.537 35.3627C133.843 35.9387 133.821 36.3454 133.432 37.3654C132.805 38.9841 131.325 50.2259 131.475 52.2305C131.545 53.1533 131.459 53.8037 131.29 53.876C131.122 53.9483 131.022 54.2188 131.084 54.4789C131.149 54.708 131.05 54.9785 130.881 55.0508C130.743 55.1272 130.143 58.4822 129.577 62.535C128.628 69.4989 128.248 71.9063 126.298 83.8109C126.206 84.3513 126.125 84.8389 126.054 85.2801L149.385 80.5347C150.156 75.2896 151.019 69.3518 151.994 62.5564C153.234 53.8665 155.131 40.6633 156.212 33.1812C159.019 13.7966 158.99 11.8394 156.142 8.31387C154.882 6.76165 154.616 6.60067 153.625 6.62775C152.826 6.64859 152.459 6.5372 152.379 6.18006Z" fill="black"/>
<path d="M147.404 94.0171C148.003 90.0678 148.668 85.613 149.42 80.4998L126.089 85.2451C125.613 88.2004 125.593 89.0739 125.859 89.7942C126.044 90.3226 126.143 90.7768 126.018 90.7603C125.893 90.7439 125.958 90.973 126.145 91.2496C126.358 91.5613 126.749 91.7388 127.168 91.6994C127.783 91.6229 127.783 91.6229 127.273 91.8708C126.394 92.2591 126.45 92.8021 127.3 92.6305C127.951 92.5271 127.978 92.5622 127.541 92.9773C126.924 93.5576 127.188 93.9704 127.914 93.5305C128.26 93.3239 128.407 92.9337 128.324 92.3557C128.257 91.6537 128.297 91.5959 128.663 91.9592C128.939 92.2791 129.154 92.3389 129.473 92.0973C129.897 91.7751 130.804 92.1465 130.734 92.673C130.71 92.8588 130.478 92.9229 130.244 92.766C129.799 92.5184 128.492 93.9845 128.822 94.3747C128.9 94.5109 128.723 94.6451 128.425 94.7319C127.9 94.8518 127.485 96.3095 127.866 96.8007C128.193 97.2218 127.992 98.2665 127.553 98.2088C126.802 98.1099 127.042 98.7086 127.917 99.0758C128.37 99.2615 128.827 99.4163 128.988 99.4059C129.117 99.3914 129.195 99.5277 129.17 99.7135C129.15 99.8683 129.263 99.9777 129.432 99.9054C129.601 99.8331 129.756 100.106 129.761 100.547C129.817 101.09 129.691 101.326 129.409 101.289C129.158 101.256 128.95 101.386 128.926 101.572C128.905 101.726 128.772 101.772 128.596 101.654C128.078 101.239 127.574 101.677 127.916 102.226C128.18 102.639 128.145 102.666 127.727 102.453C127.309 102.241 127.199 102.352 127.199 103.077C127.195 103.833 127.327 104.039 128.219 104.283C129.141 104.53 129.246 104.701 129.226 105.581C129.215 106.147 129.06 106.599 128.904 106.578C128.716 106.553 128.611 106.382 128.631 106.227C128.66 106.01 128.472 105.986 128.041 106.118C127.703 106.263 127.351 106.279 127.269 106.174C127.187 106.069 126.835 106.085 126.497 106.23C125.924 106.469 125.924 106.469 126.452 106.57C126.765 106.612 127.211 106.859 127.428 107.14C127.615 107.417 128.099 107.606 128.456 107.559C129.009 107.474 129.082 107.641 128.999 108.513C128.953 109.105 128.886 109.852 128.873 110.197C128.843 110.666 129.015 110.815 129.617 110.831C131.149 110.812 131.606 110.967 131.271 111.332C131.113 111.563 131.36 111.627 132.1 111.567C132.711 111.522 133.307 111.348 133.457 111.179C133.646 110.952 133.763 111.03 133.844 111.387C133.985 112.005 135.515 112.962 136.021 112.745C136.19 112.673 136.522 112.811 136.74 113.092C137.067 113.513 138.412 113.942 139.613 114.006C139.837 114.004 139.963 113.768 139.91 113.446C139.806 113.023 139.842 112.996 140.047 113.37C140.326 113.911 141.49 113.78 141.242 113.244C141.169 113.076 141.271 113.027 141.509 113.153C141.747 113.279 142.143 113.173 142.399 112.923C142.651 112.704 143.055 112.537 143.337 112.574C144.088 112.673 173.786 116.615 175.543 114.64C177.489 112.439 181.905 108.2 177.71 106.104C179.95 98.1446 163.244 103.349 163.521 102.944C163.832 102.513 153.733 101.341 153.451 101.303C153.263 101.279 153.202 101.019 153.341 100.69C153.484 100.331 153.326 99.8377 152.882 99.3381C152.434 98.8696 152.303 98.4113 152.477 98.0562C152.79 97.3727 152.61 96.5614 152.044 96.2663C151.806 96.1404 150.749 96.1902 149.733 96.4031C147.342 96.9075 147.007 96.5483 147.404 94.0171Z" fill="black"/>
<path d="M194.776 6.48989C194.478 5.80089 193.783 6.0337 193.134 7.06635C192.601 7.86762 192.321 8.0443 191.447 7.96646C190.897 7.93405 190.373 7.7718 190.297 7.58356C190.109 7.11294 189.762 7.22935 188.968 7.98149C188.571 8.35755 188.009 8.67892 187.688 8.69749C187.335 8.71792 186.787 9.26324 186.409 9.95924C186.03 10.6552 185.083 11.5446 184.212 12.0765C182.47 13.1403 181.616 14.5379 182.305 15.3006C182.612 15.6038 182.62 15.7318 182.363 15.7466C182.17 15.7578 182 15.6071 181.989 15.4151C181.98 15.2552 181.816 15.2005 181.661 15.3057C181.476 15.4448 181.379 15.9962 181.41 16.5401C181.476 17.1141 181.425 18.4652 181.329 19.5943C181.233 20.7233 181.289 21.6831 181.455 21.7698C181.987 22.06 181.954 25.9461 181.399 27.4869C180.651 29.5846 180.716 38.5047 181.515 39.5178C181.932 40.0394 181.988 40.4535 181.794 41.5561C181.477 43.3079 182.149 54.9214 182.683 56.9129C182.929 57.8295 182.968 58.5014 182.813 58.6067C182.658 58.7119 182.61 59.0036 182.722 59.2539C182.831 59.4723 182.783 59.764 182.628 59.8692C182.505 59.9726 182.547 63.4692 182.757 67.6622C183.141 74.8625 183.221 77.3617 183.551 89.7334C183.562 90.2957 183.574 90.8026 183.588 91.2609L206.018 81.9988C205.785 76.5647 205.511 70.4151 205.185 63.3794C199.851 57.621 199.063 56.0974 198.712 48.3494C197.808 28.2748 202.473 10.9239 198.949 7.91769C197.391 6.59541 197.095 6.48415 196.109 6.70168C195.313 6.87608 194.925 6.83438 194.776 6.48989Z" fill="black"/>
<path d="M219.979 12.8287L215.432 9.39266C215.432 9.39266 206.437 1.63927 197.146 7.90084C187.855 14.1624 179.867 40.6317 179.867 40.6317L179.871 40.634C180.488 41.0132 180.494 41.0619 179.989 41.3598C179.546 41.6484 179.555 41.7215 179.987 41.8804C180.416 42.0149 180.422 42.0636 179.984 42.1285C179.266 42.235 179.094 43.2019 179.796 43.2218C180.245 43.2543 180.248 43.2786 179.782 43.3725C179.098 43.4987 179.121 43.6935 179.844 44.7011C180.611 45.8015 180.612 46.074 179.838 45.9904C179.196 45.9369 179.199 45.9613 179.95 46.395C180.465 46.7151 180.854 46.7812 181.087 46.5981C181.32 46.4149 181.846 46.56 182.628 46.989C183.305 47.3347 184.255 47.838 184.761 48.085C185.47 48.426 185.544 48.5141 185.061 48.4618C184.702 48.3911 184.285 48.3539 184.091 48.333C182.551 48.2145 182.286 48.1298 182.408 47.8145C182.549 47.3971 182.262 47.3901 181.675 47.7993C181.411 47.9871 181.394 48.1134 181.656 48.1738C181.855 48.2434 182.043 48.488 182.069 48.7072C182.112 49.0724 182.05 49.0816 181.762 48.8022C181.443 48.5274 181.381 48.5366 181.168 48.8902C180.817 49.413 181.361 49.9766 182.111 49.8654C182.486 49.8098 182.659 49.9327 182.632 50.2342C182.584 50.6376 183.793 51.4494 184.359 51.3903C184.484 51.3718 184.984 51.5701 185.465 51.8705C185.943 52.1465 186.438 52.2961 186.585 52.1999C186.702 52.1084 187.009 52.2858 187.234 52.5745C187.496 52.9073 187.931 53.0906 188.306 53.035C188.65 52.984 189.238 53.1198 189.614 53.3366C189.989 53.5535 190.93 53.7113 191.723 53.6929C192.513 53.6501 193.252 53.714 193.357 53.7975C193.465 53.9053 194.008 53.924 194.602 53.8359C195.196 53.7479 195.772 53.7863 195.915 53.9138C196.026 54.046 193.376 55.96 193.774 55.8267C193.774 55.8267 195.522 55.0858 195.536 55.2075C195.551 55.3293 195.807 55.7885 195.924 55.6969C195.924 55.6969 193.076 57.8282 193.599 57.9488L191.036 62.0085L189.97 63.9093L191.286 65.2375C191.178 65.1297 196.272 59.2914 196.428 59.2682C196.428 59.2682 193.29 69.3765 193.307 69.5226C188.198 75.0831 200.272 69.305 200.513 69.1949C200.723 69.0894 202.037 71.3709 202.207 71.4695C202.58 71.662 206.145 74.2535 208.297 73.3646C209.359 72.9346 212.273 73.3042 212.353 74.779C212.444 76.6236 218.019 72.2883 218.494 72.8124C213.086 75.2184 215.661 73.8325 215.99 76.3356C216.457 80.0075 216.875 76.4156 217.616 77.5693C218.588 79.0604 218.83 78.8723 218.331 80.5568C218.082 81.4112 219.931 80.6494 220.199 83.9792C220.412 86.5739 223.187 87.7143 223.086 88.2C222.785 89.6817 222.312 93.9768 222.515 97.564C222.609 99.4329 222.917 102.733 222.769 102.829C222.326 103.118 222.632 103.816 223.294 104.039C224.088 104.293 224.162 104.654 223.573 105.311C223.153 105.795 223.162 105.868 223.7 106.383C224.13 106.79 224.224 107.048 224.014 107.426C223.683 108.119 223.813 109.215 224.251 109.15C224.407 109.127 224.512 109.21 224.402 109.351C224.322 109.486 224.405 109.648 224.573 109.722C224.738 109.772 224.949 110.484 225.016 111.316C225.104 112.319 225.261 112.841 225.551 112.872C225.744 112.893 225.917 112.743 225.894 112.549C225.854 112.208 225.942 112.859 226.724 112.743C226.974 112.706 228.515 111.59 228.842 111.938C229.173 112.31 226.582 115.027 226.832 114.99C227.27 114.925 230.936 113.238 230.875 113.792C230.83 113.948 231.112 114.178 231.447 114.327C231.78 114.451 232.164 114.741 232.318 114.966C232.472 115.191 232.705 115.28 232.884 115.179C233.031 115.083 233.193 115.108 233.211 115.255C233.231 115.425 233.487 115.437 233.819 115.288C234.245 115.126 234.475 115.191 234.675 115.533C234.92 115.992 235.537 116.099 235.488 115.685C235.473 115.563 235.927 115.1 236.54 114.637L237.584 113.789L238.207 114.217C238.904 114.733 239.194 114.764 239.136 114.277C239.087 113.863 240.334 113.381 241.172 113.48C241.658 113.556 241.684 113.503 241.34 113.281C240.725 112.927 240.741 112.528 241.347 112.81L241.266 111.754L241.058 111.107L241.222 110.214L240.959 109.07L240.908 108.017C240.908 108.017 240.6 107.141 240.13 106.666C240.13 106.666 239.514 105.202 240.062 105.27L239.033 102.969C239.033 102.969 237.972 100.256 238.467 100.405C238.865 100.545 239.498 98.5393 239.061 94.318C238.883 92.2879 237.029 90.0528 237.752 85.6095C237.036 80.553 235.462 81.2125 235.253 77.5766C235.188 75.9511 233.74 70.2044 233.756 69.8056C231.443 69.481 234.084 56.4654 233.64 54.5988C230.577 51.5562 232.592 47.2107 232.094 45.4263C231.462 43.0425 232.169 40.8882 231.348 36.1044C231.008 34.0488 230.83 28.2869 229.435 27.891C229.435 27.891 230.761 26.8192 228.401 25.5073L227.848 23.5817L223.411 26.8283L224.398 28.2336L218.752 34.9979L227.848 23.5817L226.363 21.3591L225.275 17.8672C225.532 18.1513 223.302 15.0566 223.302 15.0566C223.122 15.0833 220.351 13.0439 219.979 12.8287ZM208.501 32.4255C209.124 32.581 213.82 32.0147 213.869 32.4286C213.941 32.7648 215.984 44.3276 216.03 44.7172C216.171 45.6377 214.807 57.9311 213.437 58.1113L202.448 58.8588C202.361 58.1284 199.262 36.0251 200.427 34.8613C201.196 34.1032 202.217 33.3323 202.678 33.1898C203.166 33.0183 203.717 32.8375 203.867 32.7656C204.623 32.4307 207.711 32.1959 208.501 32.4255Z" fill="black"/>
<path d="M205.379 64.4091C205.136 62.0217 202.102 61.7072 201.968 60.3479L182.259 61.488C182.363 62.2593 182.424 63.2864 182.508 64.6461C182.566 65.8448 182.758 67.7897 182.921 68.9479C183.084 70.106 183.325 72.5296 183.475 74.3408C183.619 76.1821 183.858 77.8557 183.959 78.0329C184.241 78.4975 184.455 80.5094 184.424 82.2206C184.405 82.9038 184.454 84.5377 184.527 85.8334C184.621 88.3513 183.383 96.9001 182.695 98.4122C182.375 99.1264 182.397 99.1933 182.776 98.8976C183.04 98.7026 183.563 98.5304 183.886 98.5663C184.441 98.5882 184.463 98.6551 184.051 98.9443C183.708 99.2164 183.677 99.3974 183.906 99.601C184.075 99.7612 184.124 100.052 183.993 100.244C183.893 100.441 183.878 100.719 184.011 100.903C184.511 101.632 183.67 104.611 183.102 104.087C182.959 103.963 182.906 104.077 182.96 104.338C183.014 104.599 182.899 104.888 182.688 104.969C182.165 105.141 182.108 105.66 182.632 105.675C182.896 105.668 182.929 106.05 182.705 106.971C182.335 108.362 182.606 110.042 183.301 110.78C183.519 111.044 183.583 111.245 183.424 111.212C183.234 111.172 183.33 111.379 183.585 111.62C183.941 112.037 183.957 112.322 183.58 113.18C183.05 114.35 183.141 114.588 183.998 114.766C184.316 114.832 184.544 115.036 184.513 115.217C184.477 115.428 184.784 115.554 185.271 115.593C185.731 115.595 186.07 115.728 186.039 115.909C186.008 116.09 186.669 116.259 187.775 116.333C188.971 116.457 189.538 116.606 189.501 116.817C189.403 117.39 190.074 117.311 190.173 116.738C190.282 116.293 190.314 116.299 190.665 116.934C190.863 117.319 191.266 117.653 191.562 117.652C192.318 117.653 193.59 118.293 193.316 118.548C192.916 118.964 194.091 119.396 194.714 119.026C195.041 118.844 195.554 118.733 195.84 118.792C196.126 118.851 196.416 118.693 196.458 118.452C196.499 118.211 196.758 118.046 197.012 118.099C197.266 118.152 197.524 117.987 197.571 117.716C197.628 117.384 197.453 117.254 197.083 117.302C196.581 117.353 196.623 117.3 197.193 117.044C197.589 116.845 198.187 116.813 198.489 116.97C199.342 117.366 200.911 116.849 201.659 115.943C202.412 115.007 202.485 114.772 201.935 114.908C201.692 114.982 202.03 114.74 202.652 114.37C203.703 113.808 203.882 113.533 204.362 111.696C204.654 110.571 205.041 109.464 205.242 109.256C205.447 109.018 205.55 108.415 205.48 107.869C205.409 107.324 205.458 106.272 205.588 105.518C205.717 104.765 205.738 103.301 205.65 102.284C205.53 101.259 205.621 100.154 205.778 99.812C206.151 99.1714 207.363 91.9285 207.176 91.4837C207.101 91.3432 207.073 90.7439 207.102 90.188C207.173 87.673 207.075 81.157 206.915 79.4062C206.745 77.7156 206.781 77.5046 207.246 77.289C207.637 77.1205 207.741 76.8925 207.571 76.5448C207.406 76.1668 207.337 76.1838 207.222 76.6596C207.009 77.5207 206.108 71.4624 205.379 64.4091Z" fill="black"/>
<path d="M232.891 57.7314C232.27 55.2431 229.433 55.3007 229.084 53.8833L211.186 57.617C211.41 58.4177 211.637 59.4939 211.94 60.9181C212.193 62.1758 212.693 64.2038 213.036 65.4051C213.378 66.6065 214.004 69.1334 214.443 71.0256C214.882 72.9504 215.38 74.686 215.503 74.86C215.839 75.3142 216.37 77.4101 216.627 79.22C216.724 79.9434 217.04 81.6617 217.324 83.0197C217.83 85.665 218.118 94.8463 217.739 96.5304C217.564 97.3252 217.595 97.3931 217.894 97.0322C218.104 96.7926 218.555 96.5437 218.857 96.5402C219.371 96.492 219.402 96.5599 219.072 96.9178C218.803 97.2491 218.804 97.444 219.048 97.6296C219.23 97.777 219.324 98.078 219.235 98.2967C219.176 98.5183 219.209 98.8136 219.361 98.9905C219.942 99.6953 219.666 102.947 219.058 102.467C218.906 102.355 218.877 102.482 218.97 102.751C219.062 103.019 219.005 103.338 218.824 103.451C218.373 103.7 218.408 104.255 218.891 104.204C219.132 104.162 219.226 104.561 219.174 105.562C219.066 107.077 219.594 108.816 220.356 109.505C220.6 109.756 220.692 109.96 220.541 109.945C220.359 109.928 220.482 110.134 220.756 110.355C221.152 110.75 221.215 111.048 221.011 112.003C220.72 113.306 220.843 113.545 221.66 113.623C221.962 113.652 222.206 113.838 222.207 114.032C222.209 114.26 222.512 114.354 222.965 114.332C223.388 114.275 223.721 114.372 223.723 114.567C223.725 114.762 224.36 114.855 225.387 114.792C226.506 114.769 227.05 114.853 227.052 115.081C227.057 115.698 227.66 115.529 227.655 114.911C227.682 114.427 227.712 114.43 228.14 115.055C228.385 115.436 228.811 115.736 229.083 115.697C229.777 115.602 231.051 116.113 230.842 116.418C230.543 116.908 231.695 117.213 232.205 116.743C232.475 116.509 232.927 116.325 233.199 116.351C233.471 116.377 233.711 116.173 233.709 115.913C233.707 115.653 233.917 115.446 234.159 115.469C234.401 115.493 234.61 115.286 234.608 114.993C234.605 114.636 234.423 114.521 234.091 114.619C233.639 114.738 233.668 114.676 234.149 114.332C234.479 114.072 235.023 113.962 235.326 114.088C236.175 114.397 237.529 113.65 238.064 112.598C238.599 111.513 238.627 111.256 238.145 111.469C237.935 111.579 238.204 111.28 238.714 110.81C239.585 110.082 239.703 109.768 239.837 107.769C239.918 106.543 240.089 105.326 240.238 105.08C240.387 104.802 240.382 104.153 240.226 103.586C240.07 103.019 239.94 101.903 239.933 101.091C239.926 100.279 239.702 98.7317 239.451 97.669C239.17 96.6033 239.069 95.4251 239.157 95.044C239.393 94.32 239.297 86.5204 239.052 86.0749C238.96 85.9363 238.834 85.3074 238.768 84.7169C238.414 82.0537 237.238 75.1893 236.8 73.362C236.362 71.5997 236.36 71.3723 236.75 71.0851C237.081 70.8571 237.139 70.603 236.925 70.2579C236.71 69.8802 236.65 69.9069 236.624 70.4238C236.571 71.3601 234.736 65.0818 232.891 57.7314Z" fill="black"/>
</g>
<defs>
<clipPath id="clip0_7_118">
<rect width="536" height="131" fill="white"/>
</clipPath>
</defs>
</svg>
